<svg width="32" height="32" viewBox="0 0 32 32" fill="none" xmlns="http://www.w3.org/2000/svg">
<path d="M26.6868 9.09124C25.8893 9.44463 25.0326 9.68341 24.1319 9.79134C25.0612 9.23526 25.7565 8.36007 26.088 7.32905C25.2148 7.84767 24.2593 8.21272 23.2627 8.40833C22.5926 7.69282 21.705 7.21857 20.7377 7.05921C19.7704 6.89985 18.7776 7.06429 17.9134 7.527C17.0491 7.98972 16.3618 8.72482 15.9582 9.61818C15.5545 10.5115 15.4571 11.5132 15.681 12.4676C13.9119 12.3787 12.1811 11.9189 10.6012 11.1179C9.02124 10.3169 7.62737 9.19264 6.51004 7.81807C6.12799 8.4771 5.90831 9.24119 5.90831 10.055C5.90789 10.7875 6.08829 11.5089 6.43351 12.155C6.77873 12.8011 7.2781 13.352 7.88731 13.7589C7.18079 13.7364 6.48986 13.5455 5.87202 13.2021V13.2594C5.87195 14.2868 6.22735 15.2827 6.87793 16.0779C7.52851 16.8731 8.43418 17.4188 9.44128 17.6223C8.78587 17.7997 8.09871 17.8258 7.43172 17.6987C7.71586 18.5828 8.26935 19.3559 9.0147 19.9097C9.76004 20.4636 10.6599 20.7705 11.5884 20.7876C10.0123 22.0248 8.06581 22.696 6.06209 22.693C5.70715 22.6931 5.35251 22.6724 5 22.6309C7.03389 23.9387 9.40149 24.6327 11.8195 24.63C20.0048 24.63 24.4796 17.8506 24.4796 11.9709C24.4796 11.7799 24.4748 11.587 24.4662 11.3959C25.3366 10.7665 26.0879 9.98704 26.6849 9.09411L26.6868 9.09124Z" fill="#ffffff"/>
</svg>
