<svg width="32" height="32" viewBox="0 0 32 32" fill="none" xmlns="http://www.w3.org/2000/svg">
<path d="M8.39511 10.7902C9.71789 10.7902 10.7902 9.71789 10.7902 8.39511C10.7902 7.07233 9.71789 6 8.39511 6C7.07233 6 6 7.07233 6 8.39511C6 9.71789 7.07233 10.7902 8.39511 10.7902Z" fill="#ffffff"/>
<path d="M13.0544 12.6107V25.8988H17.1802V19.3276C17.1802 17.5936 17.5064 15.9144 19.6563 15.9144C21.7767 15.9144 21.8029 17.8968 21.8029 19.437V25.8999H25.9309V18.6127C25.9309 15.0332 25.1603 12.2823 20.9765 12.2823C18.9678 12.2823 17.6213 13.3847 17.0707 14.4279H17.0149V12.6107H13.0544ZM6.33105 12.6107H10.4634V25.8988H6.33105V12.6107Z" fill="#ffffff"/>
</svg>
