<?xml version="1.0" encoding="utf-8"?>
<!-- Generator: Adobe Illustrator 26.0.3, SVG Export Plug-In . SVG Version: 6.00 Build 0)  -->
<svg version="1.1" id="Layer_1" xmlns="http://www.w3.org/2000/svg" xmlns:xlink="http://www.w3.org/1999/xlink" x="0px" y="0px"
	 viewBox="0 0 360.5 85.6" style="enable-background:new 0 0 360.5 85.6;" xml:space="preserve">
<style type="text/css">
	.st0{fill:#0A0A0A;}
</style>
<g>
	<g>
		<path class="st0" d="M69,16.7c0.3-0.6-0.2-1.2-0.8-1.2l-16.7,0c-0.8,0-1.4,0.9-1,1.6l7.1,14.9c0.8,1.6,3,1.6,3.8,0
			C63.8,27.3,66,23.3,68,19C68.1,18.7,68.6,17.6,69,16.7z"/>
		<path class="st0" d="M44.7,65.5c-0.8-2.2-1.8-4.7-3-7.6c-1.2-2.9-2.4-5.9-3.6-9c-1.2-3.1-2.4-6.2-3.6-9.3
			c-1.2-3.1-2.3-5.9-3.2-8.5c-1-2.5-1.7-4.7-2.3-6.4c-0.6-1.7-0.9-2.8-0.9-3.3c0-1,0.4-1.8,1.2-2.3c0.8-0.5,1.7-0.9,2.8-1.2
			c1.1-0.3,2.3-0.5,3.5-0.6c1.2-0.1,2.3-0.2,3.1-0.3v0c0,0,0,0,0,0c0.4,0,0.8-0.3,0.8-0.8s-0.3-0.8-0.8-0.8c0,0,0,0,0,0v0H5.7v0
			c-0.4,0-0.7,0.3-0.7,0.7S5.3,17,5.7,17v0c3,0.2,5.1,0.6,6.2,1.3c1.1,0.7,2,1.3,2.5,1.8c0.5,0.8,1,1.9,1.5,3.1
			c0.5,1.3,1.1,2.6,1.6,4c0.5,1.4,1.1,2.7,1.6,3.9c0.5,1.2,0.9,2.2,1.2,2.9c1.9,5,3.6,9.5,5.2,13.5c1.5,4,3,7.8,4.4,11.3
			c1.4,3.5,2.7,6.9,4,10.2c1.3,3.3,2.6,6.8,4.1,10.6c0.1,0.2,0.2,0.4,0.4,0.6c0.2,0.2,0.5,0.3,0.8,0.3c0.6,0,1.1-0.3,1.4-0.8
			c0.5-1.2,1-2.2,1.4-3.1c0.4-0.9,0.8-1.9,1.3-2.9c0.5-1,0.9-2.1,1.4-3.2c0.4-0.9,0.4-0.9,0.7-1.6c0.3-0.6,0.3-1.3,0-1.9L44.7,65.5z
			"/>
	</g>
	<path class="st0" d="M186.3,63.7c-1.9,1.7-4.2,3.6-5.8,4.5c-3.3,1.9-7.7,2.8-13.4,2.8c-3.5,0-6.8-0.7-9.6-2
		c-2.9-1.3-5.3-3.2-7.3-5.6c-2-2.4-3.5-5.3-4.6-8.7c-1.1-3.4-1.6-7.2-1.6-11.3c0-3.7,0.5-7.2,1.5-10.5c1-3.3,2.4-6.1,4.1-8.6
		c1.7-2.5,3.8-4.4,6.1-5.9c2.4-1.5,5-2.2,7.8-2.2c0,0,1.9-0.1,3.9,0.3c1.7,0.3,3.2,1.3,3.9,2.8c2.1,4,2.8,7.9,3,10.7
		c0.1,1.3,1.8,1.6,2.4,0.5c1.8-3.5,3.7-7.2,5.8-11.4c0.4-0.7,0-1.6-0.8-1.8c-3.5-0.9-6.8-1.8-10.2-2.4c-2.8-0.5-5.6-0.8-8.3-0.8l0,0
		c0,0,0,0,0,0s0,0,0,0l0,0c-4.4,0-8.5,0.9-12.3,2.7c-3.8,1.8-7,4.2-9.8,7.2c-2.7,3-4.9,6.5-6.4,10.4c-1.5,4-2.3,8.1-2.3,12.5
		c0,4.6,0.8,9,2.3,13.1c1.5,4.1,3.6,7.7,6.2,10.7c2.6,3,5.8,5.4,9.5,7.1c3.7,1.7,7.8,2.5,12.1,2.5c3.5,0,6.7-0.5,9.6-1.5
		c3-1,5.6-2.4,8-4.3c2.4-1.9,4.4-4,6-6.4c0.7-1,1.3-2.1,1.9-3.2C188.5,64,187.2,63,186.3,63.7z"/>
	<path class="st0" d="M231.7,70c-1,0.9-1.9,1.2-2.7,1.7c-1.7,0.9-3.9,1.3-6.5,1.3c-3.2,0-5.8-1-7.8-3.1c-2-2.1-3-5.5-3-10.1V23.9
		h19.6c0.7,0,1.4-0.4,1.7-1l2.8-5.5c0.4-0.8-0.2-1.7-1.1-1.7h-23.3V6c0-0.9-1-1.3-1.7-0.7l-17.4,16.9c-0.6,0.6-0.2,1.7,0.7,1.7h7.6
		c0,6,0,12.8-0.1,20.5c-0.1,7.7-0.1,15.8-0.1,24.3c0,1.5,0.4,2.9,1.3,4.3c0.9,1.4,2,2.7,3.3,3.8c1.3,1.1,2.9,2,4.7,2.6
		c1.8,0.6,3.6,0.9,5.5,0.9c2.9,0,5.4-0.3,7.6-1c2.1-0.7,4-1.6,5.6-2.9c1.6-1.2,2.9-2.6,3.8-4.1c0.4-0.7,0.5-0.6,0.8-1.3
		c0.2-0.4,0.4-1,0.2-1.3C232.8,69.5,232.3,69.5,231.7,70z"/>
	<path class="st0" d="M291.9,22.3c-3-2.7-6.4-4.7-10.2-6.1c-3.7-1.4-7.4-2-11-2c-4.9,0-9.4,0.9-13.4,2.7c-4,1.8-7.5,4.2-10.4,7.2
		c-2.9,3-5.1,6.5-6.7,10.4c-1.6,3.9-2.4,8-2.4,12.1c0,5.8,1,10.9,3.1,15.2c2,4.3,4.7,7.9,7.9,10.6c3.2,2.8,6.8,4.8,10.6,6.1
		c3.8,1.3,7.5,1.9,11,1.9c4.3,0,8.3-0.9,12.2-2.6c3.9-1.7,7.3-4.1,10.2-7.2c2.9-3.1,5.2-6.7,7-10.8c1.7-4.1,2.6-8.5,2.6-13.2
		c0-5.5-1-10.2-2.9-14.3C297.5,28.3,295,25,291.9,22.3z M288.7,56.9c-0.7,3.7-1.8,7.2-3.3,10.4c-1.5,3.2-3.5,5.9-5.9,8
		c-2.4,2.1-5.4,3.2-8.9,3.2c-3.5,0-6.6-0.8-9.1-2.5c-2.5-1.7-4.6-4-6.3-6.8c-1.6-2.9-2.8-6.2-3.5-9.9c-0.7-3.7-1.1-7.7-1.1-11.9
		c0-3.8,0.4-7.6,1.3-11.3c0.9-3.7,2.1-7,3.8-10c1.7-3,3.7-5.3,6.1-7.2c2.4-1.8,5-2.7,8-2.7c3.7,0,6.9,1,9.4,2.9
		c2.5,2,4.6,4.4,6.1,7.4c1.5,3,2.7,6.3,3.3,9.8c0.7,3.5,1,6.9,1,10C289.7,49.7,289.3,53.1,288.7,56.9z"/>
	<g>
		<path class="st0" d="M354.6,15.5l-16.7,0c-0.8,0-1.4,0.9-1,1.6l7.1,14.9c0.8,1.6,3,1.6,3.8,0c2.4-4.9,4.6-8.8,6.5-13.1
			c0.1-0.3,0.6-1.4,1.1-2.3C355.7,16.2,355.3,15.5,354.6,15.5z"/>
		<path class="st0" d="M337,78c-1.6,0-2.9-0.1-4-0.1c-2.1-0.2-3.9-0.5-5.4-1.1c-1.5-0.6-2.3-1.7-2.3-3.1c0-9.3,0-38.5,0-38.5
			l-0.1-20.5c0-0.6-0.6-1-1.1-0.7l-15.5,6.4c-0.8,0.3-0.8,1.4-0.1,1.8c0.4,0.2,0.9,0.5,1.3,0.8c1.1,0.7,2,1.3,2.9,1.7
			c0.6,0.5,1,0.9,1.2,1.2c0.1,0.4,0.2,0.9,0.2,1.6c0,0,0,46.1,0,46.1c0,0.2,0,0.4,0,0.5c-0.2,1.2-1,2.1-2.1,2.6
			c-1.3,0.6-3.3,1.2-4.8,1.3c-0.4,0-0.7,0.3-0.7,0.7c0,0.4,0.3,0.7,0.7,0.7c0,0,26,0,26,0h4c0.4,0,0.7-0.3,0.7-0.7
			C337.7,78.3,337.4,78,337,78z"/>
	</g>
	<path class="st0" d="M121.9,26.7c-1.5-2.8-3.3-5.2-5.7-7c-2.3-1.9-5-3.3-8.2-4.2c-3.1-0.9-6.5-1.4-10-1.4c-4.4,0-8.3,0.9-11.9,2.8
		c-3.6,1.9-6.6,4.3-9.1,7.3c-2.5,3-4.4,6.4-5.8,10.2c-1.4,3.8-2,7.6-2,11.4c0,4.7,0.7,9.2,2.2,13.4c1.5,4.2,3.5,7.9,6.2,11
		c2.7,3.1,5.9,5.6,9.8,7.3c3.8,1.7,8,2.6,12.7,2.6c3.7,0,7.1-0.7,10.2-2c3-1.4,5.7-3.1,7.8-5.2c2.2-2.1,3.9-4.4,5.2-6.9
		c0.2-0.4,0.4-0.8,0.6-1.2c0.5-1.1-1-2-1.8-1.2c-1.3,1.5-2.9,3-4.2,3.9c-3.4,2.3-7.4,3.5-11.9,3.5c-4.2,0-7.9-0.8-11-2.3
		c-3.2-1.5-5.8-3.7-7.9-6.3c-2.1-2.7-3.7-5.8-4.8-9.3c-1.1-3.5-3.2-9-1.1-18.3c0.2-1.1,0.7-2.7,1.5-4.7c0.8-2,2-4.1,3.5-6.1
		c1.5-2,3.3-3.8,5.3-5.3c2-1.5,4.3-2.3,6.9-2.3c3.9,0,7,1.2,9.3,3.6c2.3,2.4,3.5,5.3,3.5,8.7c0,1.3-0.2,2.2-0.5,2.9
		c-0.3,0.6-1.9,1.7-4.6,1.7c-1.2,0-17.5,0.4-19.3,0.4c0,0,0,0,0,0c0,0,0,0,0,0c0,0,0,0,0,0v0c-0.7,0-1.2,0.6-1.2,1.3
		c0,0.7,0.6,1.3,1.2,1.3v0l35.9,0.4c1,0,1.8-0.9,1.7-2C123.9,31.7,123.1,29,121.9,26.7z"/>
</g>
</svg>
