<?xml version="1.0" encoding="utf-8"?>
<!-- Generator: Adobe Illustrator 26.0.3, SVG Export Plug-In . SVG Version: 6.00 Build 0)  -->
<svg version="1.1" id="Layer_1" xmlns="http://www.w3.org/2000/svg" xmlns:xlink="http://www.w3.org/1999/xlink" x="0px" y="0px"
	 viewBox="0 0 74.1 85.6" style="enable-background:new 0 0 74.1 85.6;" xml:space="preserve">
<style type="text/css">
	.st0{fill:#0A0A0A;}
</style>
<g>
	<g>
		<path class="st0" d="M69,16.7c0.3-0.6-0.2-1.2-0.8-1.2l-16.7,0c-0.8,0-1.4,0.9-1,1.6l7.1,14.9c0.8,1.6,3,1.6,3.8,0
			C63.8,27.3,66,23.3,68,19C68.1,18.7,68.6,17.6,69,16.7z"/>
		<path class="st0" d="M44.7,65.5c-0.8-2.2-1.8-4.7-3-7.6c-1.2-2.9-2.4-5.9-3.6-9c-1.2-3.1-2.4-6.2-3.6-9.3
			c-1.2-3.1-2.3-5.9-3.2-8.5c-1-2.5-1.7-4.7-2.3-6.4c-0.6-1.7-0.9-2.8-0.9-3.3c0-1,0.4-1.8,1.2-2.3c0.8-0.5,1.7-0.9,2.8-1.2
			c1.1-0.3,2.3-0.5,3.5-0.6c1.2-0.1,2.3-0.2,3.1-0.3v0c0,0,0,0,0,0c0.4,0,0.8-0.3,0.8-0.8s-0.3-0.8-0.8-0.8c0,0,0,0,0,0v0H5.7v0
			c-0.4,0-0.7,0.3-0.7,0.7S5.3,17,5.7,17v0c3,0.2,5.1,0.6,6.2,1.3c1.1,0.7,2,1.3,2.5,1.8c0.5,0.8,1,1.9,1.5,3.1
			c0.5,1.3,1.1,2.6,1.6,4c0.5,1.4,1.1,2.7,1.6,3.9c0.5,1.2,0.9,2.2,1.2,2.9c1.9,5,3.6,9.5,5.2,13.5c1.5,4,3,7.8,4.4,11.3
			c1.4,3.5,2.7,6.9,4,10.2c1.3,3.3,2.6,6.8,4.1,10.6c0.1,0.2,0.2,0.4,0.4,0.6c0.2,0.2,0.5,0.3,0.8,0.3c0.6,0,1.1-0.3,1.4-0.8
			c0.5-1.2,1-2.2,1.4-3.1c0.4-0.9,0.8-1.9,1.3-2.9c0.5-1,0.9-2.1,1.4-3.2c0.4-0.9,0.4-0.9,0.7-1.6c0.3-0.6,0.3-1.3,0-1.9L44.7,65.5z
			"/>
	</g>
</g>
</svg>
