<svg width="21" height="21" viewBox="0 0 21 21" fill="none" xmlns="http://www.w3.org/2000/svg">
    <path d="M9.865 19.992v1h2v-1h-2zm2-15.914v-1h-2v1h2zm0 15.914V4.078h-2v15.914h2z" fill="#031001"/>
    <path d="m1.283 10.732-.697.717 1.434 1.394.697-.717-1.434-1.394zm9.636-8.48.718-.695a1 1 0 0 0-1.435-.001l.717.697zm7.522 9.203.696.718 1.436-1.391-.696-.719-1.436 1.392zm-15.724.671 8.92-9.176-1.435-1.394-8.92 9.176 1.435 1.394zm7.484-9.177 8.24 8.506 1.436-1.392-8.24-8.506-1.436 1.392z" fill="#031001"/>
</svg>
