<?xml version="1.0" standalone="no"?>
<!DOCTYPE svg PUBLIC "-//W3C//DTD SVG 20010904//EN"
 "http://www.w3.org/TR/2001/REC-SVG-20010904/DTD/svg10.dtd">
<svg version="1.0" xmlns="http://www.w3.org/2000/svg"
 width="700.000000pt" height="700.000000pt" viewBox="0 0 700.000000 700.000000"
 preserveAspectRatio="xMidYMid meet">
<metadata>
Created by potrace 1.14, written by Peter Selinger 2001-2017
</metadata>
<g transform="translate(0.000000,700.000000) scale(0.100000,-0.100000)"
fill="#000000" stroke="none">
<path d="M1449 5394 c-40 -49 -8 -78 96 -88 107 -10 127 -14 202 -35 85 -23
117 -39 203 -102 52 -38 73 -61 100 -111 32 -63 253 -605 355 -873 29 -77 97
-255 150 -395 120 -317 269 -706 300 -785 13 -33 76 -197 140 -365 158 -414
214 -557 236 -607 10 -24 19 -46 19 -49 0 -6 89 -242 130 -344 10 -25 35 -90
55 -145 64 -174 94 -225 132 -225 34 0 80 30 95 61 42 89 88 191 88 194 0 2
15 36 34 77 113 241 189 426 189 463 2 48 -39 156 -370 990 -75 187 -144 363
-154 390 -9 28 -43 115 -74 195 -67 171 -245 641 -249 655 -2 6 -8 24 -15 40
-48 117 -211 592 -221 643 -23 115 1 168 99 221 91 48 262 86 476 107 96 9
115 17 115 52 0 15 -5 33 -12 40 -9 9 -258 12 -1059 12 -946 0 -1048 -2 -1060
-16z"/>
<path d="M4334 5400 c-12 -5 -26 -22 -32 -38 -12 -34 -21 -11 218 -537 95
-209 176 -390 181 -402 46 -120 141 -161 221 -95 9 7 28 37 41 65 14 29 71
147 127 262 187 385 320 679 320 708 0 8 -8 21 -18 30 -17 15 -67 17 -528 16
-280 0 -519 -4 -530 -9z"/>
</g>
</svg>
